<svg xmlns="http://www.w3.org/2000/svg" width="107.761" height="137.202" viewBox="0 0 107.761 137.202">
  <g id="algorithm" transform="translate(-13.631 -42.62) rotate(30)">
    <path id="Path_39" data-name="Path 39" d="M237.393,221.951a1.763,1.763,0,0,0-1.763,1.763v3.008l-1.091-1.124a1.763,1.763,0,0,0-2.531,2.456l4.12,4.244a1.763,1.763,0,0,0,1.265.535h.014a1.764,1.764,0,0,0,1.271-.555l4-4.244a1.763,1.763,0,0,0-2.568-2.417l-.947,1.007v-2.91A1.764,1.764,0,0,0,237.393,221.951Z" transform="translate(-124.687 -169.768)" fill="#5d311a"/>
    <path id="Path_40" data-name="Path 40" d="M190.417,435.37h-46.48a4.23,4.23,0,0,0-4.226,4.226v9.565a4.231,4.231,0,0,0,4.226,4.226h12.848a1.763,1.763,0,1,0,0-3.527H143.937a.7.7,0,0,1-.7-.7V439.6a.7.7,0,0,1,.7-.7h46.48a.7.7,0,0,1,.7.7v9.565a.7.7,0,0,1-.7.7H164.956a1.763,1.763,0,1,0,0,3.527h25.461a4.231,4.231,0,0,0,4.226-4.226V439.6A4.231,4.231,0,0,0,190.417,435.37Z" transform="translate(-54.471 -333.009)" fill="#5d311a"/>
    <path id="Path_41" data-name="Path 41" d="M190.418,135.4H156.179a1.763,1.763,0,1,0,0,3.527h34.239a.7.7,0,0,1,.7.7v9.565a.7.7,0,0,1-.7.7h-46.48a.7.7,0,0,1-.7-.7v-9.565a.7.7,0,0,1,.7-.7h4.071a1.763,1.763,0,0,0,0-3.527h-4.071a4.23,4.23,0,0,0-4.226,4.226v9.565a4.23,4.23,0,0,0,4.226,4.226h46.48a4.231,4.231,0,0,0,4.226-4.226v-9.565A4.231,4.231,0,0,0,190.418,135.4Z" transform="translate(-54.472 -103.567)" fill="#5d311a"/>
    <path id="Path_42" data-name="Path 42" d="M157.845,290.677a4.2,4.2,0,0,0,2.662,3.944l17.137,6.825a9.161,9.161,0,0,0,6.806,0l17.137-6.825a4.226,4.226,0,0,0-.033-7.865L195.1,284.25a1.763,1.763,0,1,0-1.278,3.287l6.449,2.506a.7.7,0,0,1,.005,1.3l-17.137,6.825a5.648,5.648,0,0,1-4.2,0l-17.137-6.825a.7.7,0,0,1,.005-1.3l17.176-6.674a5.659,5.659,0,0,1,4.107,0l3.15,1.224a1.763,1.763,0,1,0,1.278-3.287l-3.15-1.224a9.173,9.173,0,0,0-6.662,0l-17.176,6.674A4.2,4.2,0,0,0,157.845,290.677Z" transform="translate(-68.342 -213.752)" fill="#5d311a"/>
    <path id="Path_43" data-name="Path 43" d="M237.393,80.709a1.763,1.763,0,0,0-1.763,1.763V85.48l-1.091-1.124a1.763,1.763,0,0,0-2.531,2.456l4.12,4.245a1.763,1.763,0,0,0,1.265.535h.014a1.764,1.764,0,0,0,1.271-.555l4-4.245a1.763,1.763,0,1,0-2.568-2.417l-.947,1.007v-2.91A1.764,1.764,0,0,0,237.393,80.709Z" transform="translate(-124.687 -61.733)" fill="#5d311a"/>
    <path id="Path_44" data-name="Path 44" d="M391.3,320.169h-8.524a1.763,1.763,0,1,0,0,3.527H391.3a.7.7,0,0,1,.7.7v29.4a.7.7,0,0,1-.7.7h-4.346l1.06-1.029a1.763,1.763,0,1,0-2.456-2.53l-4.245,4.12a1.763,1.763,0,0,0,.02,2.549l4.245,3.995a1.763,1.763,0,1,0,2.417-2.568l-1.073-1.01H391.3a4.231,4.231,0,0,0,4.226-4.226V324.395A4.231,4.231,0,0,0,391.3,320.169Z" transform="translate(-238.86 -244.893)" fill="#5d311a"/>
    <path id="Path_45" data-name="Path 45" d="M75.971,166.565a1.763,1.763,0,0,0,2.493.037l4.244-4.12a1.763,1.763,0,0,0-.02-2.549l-4.244-4a1.763,1.763,0,1,0-2.417,2.568l1.073,1.01H72.722a4.231,4.231,0,0,0-4.226,4.226v29.4a4.231,4.231,0,0,0,4.226,4.226h8.524a1.763,1.763,0,1,0,0-3.527H72.722a.7.7,0,0,1-.7-.7v-29.4a.7.7,0,0,1,.7-.7h4.346l-1.06,1.029a1.763,1.763,0,0,0-.037,2.493Z" transform="translate(0 -118.909)" fill="#5d311a"/>
    <path id="Path_46" data-name="Path 46" d="M190.417,0h-46.48a4.23,4.23,0,0,0-4.226,4.226v9.565a4.231,4.231,0,0,0,4.226,4.226h46.48a4.231,4.231,0,0,0,4.226-4.226V4.226A4.231,4.231,0,0,0,190.417,0Zm.7,13.791a.7.7,0,0,1-.7.7h-46.48a.7.7,0,0,1-.7-.7V4.226a.7.7,0,0,1,.7-.7h46.48a.7.7,0,0,1,.7.7Z" transform="translate(-54.471)" fill="#5d311a"/>
  </g>
</svg>
