<svg xmlns="http://www.w3.org/2000/svg" width="253.62" height="253.62" viewBox="0 0 253.62 253.62">
  <g id="chef_1_" data-name="chef(1)" transform="translate(0 80.655) rotate(-25)">
    <g id="Group_9" data-name="Group 9">
      <g id="Group_8" data-name="Group 8">
        <path id="Path_47" data-name="Path 47" d="M203.728,196.338a49.649,49.649,0,0,0-16.735,2.7,25.806,25.806,0,0,1-8.564,1.635c-2.918,0-6.142-1.3-10.225-2.957C161.909,195.173,154.073,192,143,192a4.338,4.338,0,0,0,0,8.675c9.382,0,16.058,2.7,21.946,5.083,4.562,1.847,8.87,3.592,13.478,3.592a34.021,34.021,0,0,0,11.174-2.037,41,41,0,0,1,14.126-2.3,4.338,4.338,0,1,0,0-8.675Z" transform="translate(-82.281 -113.927)" fill="#5d311a"/>
        <path id="Path_48" data-name="Path 48" d="M136.463,0c-14.83,0-33.7,5.47-50.852,14.627C74.875,10.906,64.087,8.675,54.383,8.675,20.332,8.675,0,28.134,0,60.724c0,22.912,15.992,40.625,34.8,48.128L34.7,173.466a17.347,17.347,0,0,0,17.35,17.379H138.8a17.367,17.367,0,0,0,17.35-17.35V100.13c18.766-7.527,34.7-25.212,34.7-48.081C190.846,19.459,170.514,0,136.463,0Zm11.009,173.5a8.686,8.686,0,0,1-8.675,8.675H52.049a8.669,8.669,0,0,1-8.675-8.687l.028-17.337h104.07ZM136.463,95.423a4.338,4.338,0,0,0,0,8.675,50.483,50.483,0,0,0,11.009-1.3v44.67H43.417l.059-35.97a50.436,50.436,0,0,0,10.908,1.271,4.338,4.338,0,0,0,0-8.675c-21.619,0-45.708-17.811-45.708-43.374,0-39.147,31.963-43.374,45.708-43.374,25.092,0,59.538,16.439,76.777,36.648a4.339,4.339,0,1,0,6.6-5.633C127.652,36.517,112.52,26.143,96.415,18.93c13.975-6.472,28.45-10.256,40.048-10.256,13.745,0,45.708,4.227,45.708,43.374C182.171,77.612,158.082,95.423,136.463,95.423Z" fill="#5d311a"/>
      </g>
    </g>
  </g>
</svg>
