<svg xmlns="http://www.w3.org/2000/svg" width="96.622" height="96.573" viewBox="0 0 96.622 96.573">
  <g id="qr-code" transform="translate(0 35.391) rotate(-30)">
    <path id="Path_30" data-name="Path 30" d="M1.07,25.784H24.714a1.07,1.07,0,0,0,1.07-1.07V11.284a1.07,1.07,0,0,0-2.141,0V23.644H2.141V2.141h21.5V6.619a1.07,1.07,0,0,0,2.141,0V1.07A1.07,1.07,0,0,0,24.714,0H1.07A1.07,1.07,0,0,0,0,1.07V24.714A1.07,1.07,0,0,0,1.07,25.784Z" fill="#5d311a"/>
    <path id="Path_31" data-name="Path 31" d="M41.07,40A1.07,1.07,0,0,0,40,41.07V53.3a1.07,1.07,0,0,0,1.07,1.07H53.3a1.07,1.07,0,0,0,1.07-1.07V41.07A1.07,1.07,0,0,0,53.3,40ZM52.226,52.226H42.141V42.141H52.226Z" transform="translate(-34.291 -34.291)" fill="#5d311a"/>
    <path id="Path_32" data-name="Path 32" d="M385.7,53.3V41.07a1.07,1.07,0,0,0-1.07-1.07H372.4a1.07,1.07,0,0,0-1.07,1.07V53.3a1.07,1.07,0,0,0,1.07,1.07h12.226A1.07,1.07,0,0,0,385.7,53.3Zm-2.141-1.07H373.474V42.141h10.085Z" transform="translate(-320.627 -34.291)" fill="#5d311a"/>
    <path id="Path_33" data-name="Path 33" d="M261.365,0H237.721a1.07,1.07,0,0,0-1.07,1.07V15.762H221.959a1.07,1.07,0,0,0-1.07,1.07v7.881a1.07,1.07,0,0,0,1.07,1.07h6.811v5.74h-6.811a1.07,1.07,0,0,0-1.07,1.07v7.881a1.07,1.07,0,0,0,1.07,1.07h7.881a1.07,1.07,0,0,0,1.07-1.07V33.665h6.811a1.07,1.07,0,0,0,1.07-1.07v-6.81h8.418a1.07,1.07,0,0,0,0-2.141h-8.418V2.141h21.5v21.5h-8.419a1.07,1.07,0,0,0,0,2.141h9.489a1.07,1.07,0,0,0,1.07-1.07V1.07A1.07,1.07,0,0,0,261.365,0ZM228.77,39.405h-5.74v-5.74h5.74Zm2.141-7.881V24.713a1.07,1.07,0,0,0-1.07-1.07H223.03V17.9H236.65V31.524h-5.74Z" transform="translate(-191.654 0)" fill="#5d311a"/>
    <path id="Path_34" data-name="Path 34" d="M53.3,371.33H49.435a1.07,1.07,0,0,0,0,2.141h2.792v10.086H42.141V373.471H44.77a1.07,1.07,0,1,0,0-2.141h-3.7A1.07,1.07,0,0,0,40,372.4v12.226a1.07,1.07,0,0,0,1.07,1.07H53.3a1.07,1.07,0,0,0,1.07-1.07V372.4a1.07,1.07,0,0,0-1.07-1.07Z" transform="translate(-34.291 -320.759)" fill="#5d311a"/>
    <path id="Path_35" data-name="Path 35" d="M221.959,10.022h7.881a1.07,1.07,0,0,0,1.07-1.07V1.07A1.07,1.07,0,0,0,229.841,0h-7.881a1.07,1.07,0,0,0-1.07,1.07V8.952A1.07,1.07,0,0,0,221.959,10.022Zm1.07-7.881h5.74v5.74h-5.74Z" transform="translate(-190.509 0)" fill="#5d311a"/>
    <path id="Path_36" data-name="Path 36" d="M40.476,331.333H32.594a1.07,1.07,0,0,0-1.07,1.07v6.811h-5.74V332.4a1.07,1.07,0,0,0-1.07-1.07H1.07A1.07,1.07,0,0,0,0,332.4v23.643a1.07,1.07,0,0,0,1.07,1.07H24.714a1.07,1.07,0,0,0,1.07-1.07v-6.811h5.74v6.811a1.07,1.07,0,0,0,1.07,1.07h7.881a1.07,1.07,0,0,0,1.07-1.07v-7.881a1.07,1.07,0,0,0-1.07-1.07H33.665v-5.74h6.811a1.07,1.07,0,0,0,1.07-1.07V332.4A1.07,1.07,0,0,0,40.476,331.333ZM23.643,354.976H2.141v-21.5h21.5Zm2.141-13.621h5.74v5.74h-5.74Zm13.621,13.621h-5.74v-5.74h5.74Zm0-15.762h-5.74v-5.74h5.74Z" transform="translate(0 -286.47)" fill="#5d311a"/>
    <path id="Path_37" data-name="Path 37" d="M356.046,220.889H340.284a1.07,1.07,0,0,0-1.07,1.07v6.811H332.4a1.07,1.07,0,0,0-1.07,1.07v7.881a1.07,1.07,0,0,0,1.07,1.07h14.692v5.74h-6.811a1.07,1.07,0,0,0-1.07,1.07v6.811H332.4a1.07,1.07,0,0,0-1.07,1.07v7.881a1.07,1.07,0,0,0,1.07,1.07h7.881a1.07,1.07,0,0,0,1.07-1.07v-6.811h5.74v6.811a1.07,1.07,0,0,0,1.07,1.07h7.881a1.07,1.07,0,0,0,1.07-1.07v-7.881a1.07,1.07,0,0,0-1.07-1.07h-6.811v-5.74h6.811a1.07,1.07,0,0,0,1.07-1.07v-7.881a1.07,1.07,0,0,0-1.07-1.07h-6.811v-5.74h6.811a1.07,1.07,0,0,0,1.07-1.07v-7.881A1.07,1.07,0,0,0,356.046,220.889Zm-22.573,10.022h5.74v5.74h-5.74Zm5.74,29.383h-5.74v-5.74h5.74Zm2.141-13.621h5.74v5.74h-5.74Zm13.621,13.621h-5.74v-5.74h5.74Zm0-15.762h-5.74v-5.74h5.74Zm0-15.762h-6.811a1.07,1.07,0,0,0-1.07,1.07v6.811h-5.74V223.03h13.621Z" transform="translate(-286.335 -191.788)" fill="#5d311a"/>
    <path id="Path_38" data-name="Path 38" d="M72.055,220.889H56.293a1.07,1.07,0,0,0-1.07,1.07v7.881a1.07,1.07,0,0,0,1.07,1.07H72.055a1.07,1.07,0,0,0,1.07-1.07v-7.881A1.07,1.07,0,0,0,72.055,220.889Zm-1.07,7.881H57.364v-5.74H70.985Z" transform="translate(-47.342 -190.576)" fill="#5d311a"/>
  </g>
</svg>
