<svg xmlns="http://www.w3.org/2000/svg" width="127.309" height="128.115" viewBox="0 0 127.309 128.115">
  <g id="XMLID_1_" transform="translate(-2.687 47.695) rotate(-30)">
    <path id="Path_6" data-name="Path 6" d="M24.14,11.412H20.286V8.771L19.31,5.5h4.83a3.832,3.832,0,0,1,3.751,2.286,2.706,2.706,0,0,1,.1.67C27.994,10.072,26.247,11.412,24.14,11.412Z" transform="translate(67.499 16.178)" fill="#5d311a"/>
    <path id="Path_7" data-name="Path 7" d="M23.354,11c2.107,0,3.854,1.34,3.854,2.956s-1.747,2.956-3.854,2.956H19.5V11Z" transform="translate(68.285 32.355)" fill="#5d311a"/>
    <path id="Path_8" data-name="Path 8" d="M23.354,17c2.107,0,3.854,1.34,3.854,2.956s-1.747,2.956-3.854,2.956H19.5V17Z" transform="translate(68.285 50.003)" fill="#5d311a"/>
    <path id="Path_9" data-name="Path 9" d="M19.5,9.206h3.854c2.107,0,3.854-1.34,3.854-2.956V27.928c0-1.616-1.747-2.956-3.854-2.956H19.5Z" transform="translate(68.285 18.384)" fill="#5d311a"/>
    <path id="Path_10" data-name="Path 10" d="M19.5,14.706h3.854c2.107,0,3.854-1.34,3.854-2.956V35.4c0-1.616-1.747-2.956-3.854-2.956H19.5Z" transform="translate(68.285 34.561)" fill="#5d311a"/>
    <path id="Path_11" data-name="Path 11" d="M4.5,17H81.578v5.912H4.5Z" transform="translate(6.208 50.003)" fill="#5d311a"/>
    <path id="Path_12" data-name="Path 12" d="M4.5,11H81.578v5.912H4.5Z" transform="translate(6.208 32.355)" fill="#5d311a"/>
    <path id="Path_13" data-name="Path 13" d="M30.7,8c2.107,0,3.854,1.34,3.854,2.956s-1.747,2.956-3.854,2.956H17.854c-2.107,0-3.854-1.34-3.854-2.956S15.747,8,17.854,8Z" transform="translate(45.524 23.531)" fill="#5d311a"/>
    <path id="Path_14" data-name="Path 14" d="M30.7,14c2.107,0,3.854,1.34,3.854,2.956s-1.747,2.956-3.854,2.956H17.854c-2.107,0-3.854-1.34-3.854-2.956S15.747,14,17.854,14Z" transform="translate(45.524 41.179)" fill="#5d311a"/>
    <path id="Path_15" data-name="Path 15" d="M30.7,19.5c2.107,0,3.854,1.34,3.854,2.956s-1.747,2.956-3.854,2.956H17.854c-2.107,0-3.854-1.34-3.854-2.956S15.747,19.5,17.854,19.5Z" transform="translate(45.524 57.357)" fill="#5d311a"/>
    <path id="Path_16" data-name="Path 16" d="M12.884,8c2.107,0,3.854,1.34,3.854,2.956v1.971c0,1.616-1.747,2.956-3.854,2.956-2.158,0-3.854-1.34-3.854-2.956V10.956C9.03,9.34,10.726,8,12.884,8Z" transform="translate(24.955 23.531)" fill="#5d311a"/>
    <path id="Path_17" data-name="Path 17" d="M16.738,16.956v1.971c0,1.616-1.747,2.956-3.854,2.956-2.158,0-3.854-1.34-3.854-2.956V16.956c0-1.616,1.7-2.956,3.854-2.956C14.991,14,16.738,15.34,16.738,16.956Z" transform="translate(24.955 41.179)" fill="#5d311a"/>
    <path id="Path_18" data-name="Path 18" d="M16.738,22.456v1.971c0,1.616-1.747,2.956-3.854,2.956-2.158,0-3.854-1.34-3.854-2.956V22.456c0-1.616,1.7-2.956,3.854-2.956C14.991,19.5,16.738,20.84,16.738,22.456Z" transform="translate(24.955 57.357)" fill="#5d311a"/>
    <path id="Path_19" data-name="Path 19" d="M13.738,12.927c0,1.616-1.747,2.956-3.854,2.956-2.158,0-3.854-1.34-3.854-2.956V10.956C6.03,9.34,7.726,8,9.884,8c2.107,0,3.854,1.34,3.854,2.956Z" transform="translate(12.54 23.531)" fill="#5d311a"/>
    <path id="Path_20" data-name="Path 20" d="M13.738,18.927c0,1.616-1.747,2.956-3.854,2.956-2.158,0-3.854-1.34-3.854-2.956V16.956C6.03,15.34,7.726,14,9.884,14c2.107,0,3.854,1.34,3.854,2.956Z" transform="translate(12.54 41.179)" fill="#5d311a"/>
    <path id="Path_21" data-name="Path 21" d="M13.738,24.427c0,1.616-1.747,2.956-3.854,2.956-2.158,0-3.854-1.34-3.854-2.956V22.456c0-1.616,1.7-2.956,3.854-2.956,2.107,0,3.854,1.34,3.854,2.956Z" transform="translate(12.54 57.357)" fill="#5d311a"/>
    <path id="Path_22" data-name="Path 22" d="M16.02,6.661,11.6,21.678H6.771A3.832,3.832,0,0,0,3.02,23.964l5.5-18.6C9.443,2.207,13.091,0,17.305,0H81.022c4.214,0,7.862,2.207,8.787,5.36l5.5,18.6a3.832,3.832,0,0,0-3.751-2.286h-4.83L82.256,6.661a1.2,1.2,0,0,0-1.233-.749H17.305a1.319,1.319,0,0,0-1.285.749Z" transform="translate(0.083)" fill="#5d311a"/>
    <path id="Path_23" data-name="Path 23" d="M4.5,8.771,5.476,5.5H80.6l.976,3.271v2.641H4.5Z" transform="translate(6.208 16.178)" fill="#5d311a"/>
    <path id="Path_24" data-name="Path 24" d="M11.992,36.472H86.5c.719,0,1.285-.434,1.285-.985V20.706h3.854c2.107,0,3.854-1.34,3.854-2.956V35.486c0,3.823-4.008,6.9-8.992,6.9H11.992C7.059,42.384,3,39.309,3,35.486V17.75c0,1.616,1.747,2.956,3.854,2.956h3.854v14.78C10.708,36.038,11.273,36.472,11.992,36.472Z" transform="translate(0 52.21)" fill="#5d311a"/>
    <path id="Path_25" data-name="Path 25" d="M10.708,17v5.912H6.854C4.747,22.912,3,21.572,3,19.956S4.747,17,6.854,17Z" transform="translate(0 50.003)" fill="#5d311a"/>
    <path id="Path_26" data-name="Path 26" d="M10.708,14.706V32.442H6.854C4.747,32.442,3,33.782,3,35.4V11.75c0,1.616,1.747,2.956,3.854,2.956Z" transform="translate(0 34.561)" fill="#5d311a"/>
    <path id="Path_27" data-name="Path 27" d="M10.708,11v5.912H6.854C4.747,16.912,3,15.572,3,13.956S4.747,11,6.854,11Z" transform="translate(0 32.355)" fill="#5d311a"/>
    <path id="Path_28" data-name="Path 28" d="M10.708,9.206V24.972H6.854C4.747,24.972,3,26.312,3,27.928V6.25C3,7.866,4.747,9.206,6.854,9.206Z" transform="translate(0 18.384)" fill="#5d311a"/>
    <path id="Path_29" data-name="Path 29" d="M10.708,8.771v2.641H6.854C4.747,11.412,3,10.072,3,8.456a2.706,2.706,0,0,1,.1-.67A3.832,3.832,0,0,1,6.854,5.5h4.83Z" transform="translate(0 16.178)" fill="#5d311a"/>
  </g>
</svg>
